<svg width="80" height="80" viewBox="0 0 80 80" fill="none" xmlns="http://www.w3.org/2000/svg">
<rect width="80" height="80" rx="20" fill="#3289EF"/>
<path d="M40.3415 40.6465L27.5473 26.1465C27.4648 26.0525 27.3528 26 27.2354 26H14.4413C14.2631 26 14.1016 26.122 14.0336 26.3085C13.9652 26.4955 14.0032 26.7105 14.1294 26.8535L26.6116 41L14.1294 55.1465C14.0032 55.2896 13.9653 55.5045 14.0336 55.6915C14.1016 55.878 14.263 56 14.4413 56H27.2354C27.3528 56 27.4648 55.9475 27.5473 55.8535L40.3415 41.3535C40.514 41.158 40.514 40.842 40.3415 40.6465Z" fill="white"/>
<rect x="37" y="49" width="29" height="8" rx="2" fill="white"/>
</svg>
